HIERARCHY
ROOT Hips
{
  OFFSET 5.72205e-005 65.662 3.42586
  CHANNELS 6 Xposition Yposition Zposition Zrotation Xrotation Yrotation
  JOINT Chest
  {
    OFFSET 0 8.7983 -4.7612
    CHANNELS 6 Xposition Yposition Zposition Zrotation Xrotation Yrotation
    JOINT Chest2
    {
      OFFSET 0 8.0291 0.4195
      CHANNELS 6 Xposition Yposition Zposition Zrotation Xrotation Yrotation
      JOINT Chest3
      {
        OFFSET 0 9.9351 -2.2114
        CHANNELS 6 Xposition Yposition Zposition Zrotation Xrotation Yrotation
        JOINT Neck
        {
          OFFSET 0 22.3885 -0.4656
          CHANNELS 6 Xposition Yposition Zposition Zrotation Xrotation Yrotation
          JOINT Head
          {
            OFFSET -0.0001 12.643 3.4389
            CHANNELS 6 Xposition Yposition Zposition Zrotation Xrotation Yrotation
            End Site
            {
              OFFSET 0.0001 17.6655 0.5274
            }
          }
        }
        JOINT LeftCollar
        {
          OFFSET 2.2603 21.606 7.4023
          CHANNELS 6 Xposition Yposition Zposition Zrotation Xrotation Yrotation
          JOINT LeftShoulder
          {
            OFFSET 13.5163 -1.1332 -5.0146
            CHANNELS 6 Xposition Yposition Zposition Zrotation Xrotation Yrotation
            JOINT LeftElbow
            {
              OFFSET -0.0995 -28.05 -0.2431
              CHANNELS 6 Xposition Yposition Zposition Zrotation Xrotation Yrotation
              JOINT LeftWrist
              {
                OFFSET 0.0679 -23.3996 -0.1402
                CHANNELS 6 Xposition Yposition Zposition Zrotation Xrotation Yrotation
                JOINT LeftFinger1
                {
                  OFFSET 0.7932 -9.069 2.5189
                  CHANNELS 6 Xposition Yposition Zposition Zrotation Xrotation Yrotation
                  JOINT LeftFinger11
                  {
                    OFFSET -0.8272 -3.3923 0.5977
                    CHANNELS 6 Xposition Yposition Zposition Zrotation Xrotation Yrotation
                    JOINT LeftFinger12
                    {
                      OFFSET -0.5649 -2.3158 0.4082
                      CHANNELS 6 Xposition Yposition Zposition Zrotation Xrotation Yrotation
                      End Site
                      {
                        OFFSET -0.4919 -1.6479 0.2673
                      }
                    }
                  }
                }
                JOINT LeftFinger2
                {
                  OFFSET 0.9159 -9.2044 0.2193
                  CHANNELS 6 Xposition Yposition Zposition Zrotation Xrotation Yrotation
                  JOINT LeftFinger21
                  {
                    OFFSET 0.0117 -4.1944 -0.0248
                    CHANNELS 6 Xposition Yposition Zposition Zrotation Xrotation Yrotation
                    JOINT LeftFinger22
                    {
                      OFFSET 0.0071 -2.3249 -0.0142
                      CHANNELS 6 Xposition Yposition Zposition Zrotation Xrotation Yrotation
                      End Site
                      {
                        OFFSET -0.1475 -2.0882 0.0028
                      }
                    }
                  }
                }
                JOINT LeftFinger3
                {
                  OFFSET 0.6113 -8.7231 -2.0637
                  CHANNELS 6 Xposition Yposition Zposition Zrotation Xrotation Yrotation
                  JOINT LeftFinger31
                  {
                    OFFSET -0.1927 -3.8059 -0.2383
                    CHANNELS 6 Xposition Yposition Zposition Zrotation Xrotation Yrotation
                    JOINT LeftFinger32
                    {
                      OFFSET -0.1091 -2.1688 -0.1362
                      CHANNELS 6 Xposition Yposition Zposition Zrotation Xrotation Yrotation
                      End Site
                      {
                        OFFSET -0.2358 -1.9176 -0.0906
                      }
                    }
                  }
                }
                JOINT LeftFinger4
                {
                  OFFSET -0.6151 -8.0947 -3.5641
                  CHANNELS 6 Xposition Yposition Zposition Zrotation Xrotation Yrotation
                  JOINT LeftFinger41
                  {
                    OFFSET -0.4882 -2.341 -0.6462
                    CHANNELS 6 Xposition Yposition Zposition Zrotation Xrotation Yrotation
                    JOINT LeftFinger42
                    {
                      OFFSET -0.3575 -1.7167 -0.4742
                      CHANNELS 6 Xposition Yposition Zposition Zrotation Xrotation Yrotation
                      End Site
                      {
                        OFFSET -0.4187 -1.5237 -0.3496
                      }
                    }
                  }
                }
                JOINT LeftFinger0
                {
                  OFFSET -1.42 -1.8761 1.4223
                  CHANNELS 6 Xposition Yposition Zposition Zrotation Xrotation Yrotation
                  JOINT LeftFinger01
                  {
                    OFFSET -1.1471 -3.4929 2.6334
                    CHANNELS 6 Xposition Yposition Zposition Zrotation Xrotation Yrotation
                    JOINT LeftFinger02
                    {
                      OFFSET -0.823 -2.3 1.6571
                      CHANNELS 6 Xposition Yposition Zposition Zrotation Xrotation Yrotation
                      End Site
                      {
                        OFFSET -0.5822 -1.6914 1.1582
                      }
                    }
                  }
                }
              }
            }
          }
        }
        JOINT RightCollar
        {
          OFFSET -2.2603 21.606 7.4023
          CHANNELS 6 Xposition Yposition Zposition Zrotation Xrotation Yrotation
          JOINT RightShoulder
          {
            OFFSET -13.5187 -1.1334 -5.0155
            CHANNELS 6 Xposition Yposition Zposition Zrotation Xrotation Yrotation
            JOINT RightElbow
            {
              OFFSET 0.0994 -28.0499 -0.2431
              CHANNELS 6 Xposition Yposition Zposition Zrotation Xrotation Yrotation
              JOINT RightWrist
              {
                OFFSET -0.0679 -23.3996 -0.1402
                CHANNELS 6 Xposition Yposition Zposition Zrotation Xrotation Yrotation
                JOINT RightFinger1
                {
                  OFFSET -0.7932 -9.0691 2.5189
                  CHANNELS 6 Xposition Yposition Zposition Zrotation Xrotation Yrotation
                  JOINT RightFinger11
                  {
                    OFFSET 0.8272 -3.3923 0.5977
                    CHANNELS 6 Xposition Yposition Zposition Zrotation Xrotation Yrotation
                    JOINT RightFinger12
                    {
                      OFFSET 0.565 -2.3158 0.4082
                      CHANNELS 6 Xposition Yposition Zposition Zrotation Xrotation Yrotation
                      End Site
                      {
                        OFFSET 0.4919 -1.6479 0.2673
                      }
                    }
                  }
                }
                JOINT RightFinger2
                {
                  OFFSET -0.916 -9.2044 0.2193
                  CHANNELS 6 Xposition Yposition Zposition Zrotation Xrotation Yrotation
                  JOINT RightFinger21
                  {
                    OFFSET -0.0117 -4.1944 -0.0248
                    CHANNELS 6 Xposition Yposition Zposition Zrotation Xrotation Yrotation
                    JOINT RightFinger22
                    {
                      OFFSET -0.0071 -2.3249 -0.0142
                      CHANNELS 6 Xposition Yposition Zposition Zrotation Xrotation Yrotation
                      End Site
                      {
                        OFFSET 0.1475 -2.0882 0.0028
                      }
                    }
                  }
                }
                JOINT RightFinger3
                {
                  OFFSET -0.6113 -8.7231 -2.0637
                  CHANNELS 6 Xposition Yposition Zposition Zrotation Xrotation Yrotation
                  JOINT RightFinger31
                  {
                    OFFSET 0.1927 -3.8059 -0.2383
                    CHANNELS 6 Xposition Yposition Zposition Zrotation Xrotation Yrotation
                    JOINT RightFinger32
                    {
                      OFFSET 0.1091 -2.1688 -0.1362
                      CHANNELS 6 Xposition Yposition Zposition Zrotation Xrotation Yrotation
                      End Site
                      {
                        OFFSET 0.2358 -1.9176 -0.0906
                      }
                    }
                  }
                }
                JOINT RightFinger4
                {
                  OFFSET 0.6151 -8.0947 -3.564
                  CHANNELS 6 Xposition Yposition Zposition Zrotation Xrotation Yrotation
                  JOINT RightFinger41
                  {
                    OFFSET 0.4882 -2.341 -0.6462
                    CHANNELS 6 Xposition Yposition Zposition Zrotation Xrotation Yrotation
                    JOINT RightFinger42
                    {
                      OFFSET 0.3574 -1.7166 -0.4742
                      CHANNELS 6 Xposition Yposition Zposition Zrotation Xrotation Yrotation
                      End Site
                      {
                        OFFSET 0.4187 -1.5237 -0.3496
                      }
                    }
                  }
                }
                JOINT RightFinger0
                {
                  OFFSET 1.4199 -1.8761 1.4221
                  CHANNELS 6 Xposition Yposition Zposition Zrotation Xrotation Yrotation
                  JOINT RightFinger01
                  {
                    OFFSET 1.1472 -3.4929 2.6336
                    CHANNELS 6 Xposition Yposition Zposition Zrotation Xrotation Yrotation
                    JOINT RightFinger02
                    {
                      OFFSET 0.8229 -2.3 1.6571
                      CHANNELS 6 Xposition Yposition Zposition Zrotation Xrotation Yrotation
                      End Site
                      {
                        OFFSET 0.5822 -1.6914 1.1582
                      }
                    }
                  }
                }
              }
            }
          }
        }
      }
    }
  }
  JOINT RightHip
  {
    OFFSET -9.412 3.9771 -0.7758
    CHANNELS 6 Xposition Yposition Zposition Zrotation Xrotation Yrotation
    JOINT RightKnee
    {
      OFFSET -0.7531 -40.938 0
      CHANNELS 6 Xposition Yposition Zposition Zrotation Xrotation Yrotation
      JOINT RightAnkle
      {
        OFFSET 0 -40.1986 0
        CHANNELS 6 Xposition Yposition Zposition Zrotation Xrotation Yrotation
        JOINT RightToe
        {
          OFFSET 0 -4.4182 9.239
          CHANNELS 6 Xposition Yposition Zposition Zrotation Xrotation Yrotation
          End Site
          {
            OFFSET 0 0 6.1981
          }
        }
      }
    }
  }
  JOINT LeftHip
  {
    OFFSET 9.4119 3.9773 -0.7758
    CHANNELS 6 Xposition Yposition Zposition Zrotation Xrotation Yrotation
    JOINT LeftKnee
    {
      OFFSET 0.7532 -40.9383 0
      CHANNELS 6 Xposition Yposition Zposition Zrotation Xrotation Yrotation
      JOINT LeftAnkle
      {
        OFFSET 0 -40.1986 0
        CHANNELS 6 Xposition Yposition Zposition Zrotation Xrotation Yrotation
        JOINT LeftToe
        {
          OFFSET 0 -4.4182 9.239
          CHANNELS 6 Xposition Yposition Zposition Zrotation Xrotation Yrotation
          End Site
          {
            OFFSET 0 0 6.1981
          }
        }
      }
    }
  }
}
MOTION
Frames:	4
Frame Time:	0.0333333
-7.49772 -0.67997 -59.2358 90.1363 -85.2668 -179.861 0 8.7983 -4.7612 2.03345 -3.06824 -0.260513 -4.44089e-016 8.0291 0.4195 4.06166 -6.14384 -0.412495 1.77636e-015 9.9351 -2.2114 4.06167 -6.14384 -0.412499 0 22.3885 -0.4656 8.99832 -1.98038 0.311966 -0.0001 12.643 3.4389 -0.00108593 -10.0018 -14.7143 2.2603 21.606 7.4023 -18.2693 -2.92266 -20.4121 13.5163 -1.1332 -5.0146 48.6143 -55.8659 19.8786 -0.0995 -28.05 -0.2431 -9.24945 1.75354 -4.86772 0.0679 -23.3996 -0.1402 -66.6819 -19.321 -9.42234 0.7932 -9.069 2.5189 -1.33126e-006 -3.56011e-006 -7.77391e-007 -0.8272 -3.3923 0.5977 -8.82781e-032 1.59028e-015 3.18055e-015 -0.5649 -2.3158 0.4082 3.97569e-016 3.18055e-015 3.18055e-015 0.9159 -9.2044 0.2193 -1.33126e-006 -3.56011e-006 -7.77391e-007 0.0117 -4.1944 -0.0248 -0.0127848 0.00232617 8.71054e-005 0.0071 -2.3249 -0.0142 -1.19271e-015 3.18055e-015 -3.18055e-015 0.6113 -8.7231 -2.0637 -1.33126e-006 -3.56011e-006 -7.77391e-007 -0.1927 -3.8059 -0.2383 -0.0160762 0.00300778 0.000859685 -0.1091 -2.1688 -0.1362 -3.97569e-016 0 -0 -0.6151 -8.0947 -3.5641 -1.33126e-006 -3.56011e-006 -7.77391e-007 -0.4882 -2.341 -0.6462 -0.0126656 0.00314461 0.00284248 -0.3575 -1.7167 -0.4742 7.95139e-016 0 6.36111e-015 -1.42 -1.8761 1.4223 -1.33126e-006 -3.56011e-006 -7.77391e-007 -1.1471 -3.4929 2.6334 -8.82781e-032 1.59028e-015 3.18055e-015 -0.823 -2.3 1.6571 3.97569e-016 3.18055e-015 3.18055e-015 -2.2603 21.606 7.4023 6.34222 -19.1149 -37.2911 -13.5187 -1.1334 -5.0155 -57.8868 25.3804 -3.46987 0.0994 -28.0499 -0.2431 67.099 4.65775 -35.6499 -0.0679 -23.3996 -0.1402 -29.2874 -17.157 4.64598 -0.7932 -9.0691 2.5189 1.59028e-015 -6.36111e-015 -2.38542e-015 0.8272 -3.3923 0.5977 4.77083e-015 0 -1.19271e-015 0.565 -2.3158 0.4082 4.77083e-015 -3.18055e-015 -1.59028e-015 -0.916 -9.2044 0.2193 1.59028e-015 -6.36111e-015 -2.38542e-015 -0.0117 -4.1944 -0.0248 0.0129558 0.00232816 -8.84871e-005 -0.0071 -2.3249 -0.0142 -1.59028e-015 1.59028e-015 2.78299e-015 -0.6113 -8.7231 -2.0637 1.59028e-015 -6.36111e-015 -2.38542e-015 0.1927 -3.8059 -0.2383 0.0163624 0.00304315 -0.000875511 0.1091 -2.1688 -0.1362 -3.18055e-015 1.11319e-014 1.59028e-015 0.6151 -8.0947 -3.564 1.59028e-015 -6.36111e-015 -2.38542e-015 0.4882 -2.341 -0.6462 0.0145581 0.00366799 -0.00325926 0.3574 -1.7166 -0.4742 -2.3173e-031 1.11319e-014 1.19271e-015 1.4199 -1.8761 1.4221 1.59028e-015 -6.36111e-015 -2.38542e-015 1.1472 -3.4929 2.6336 4.77083e-015 0 -1.19271e-015 0.8229 -2.3 1.6571 4.77083e-015 -3.18055e-015 -1.59028e-015 -9.412 3.9771 -0.7758 -66.5689 -23.3359 -87.6555 -0.7531 -40.938 -7.10543e-015 147.961 45.3447 -143.189 7.10543e-015 -40.1986 3.55271e-015 0.68975 17.7099 11.0002 -3.55271e-015 -4.4182 9.239 -2.38542e-015 1.13996e-006 6.36111e-015 9.4119 3.9773 -0.7758 -1.72132 8.33826 8.24733 0.7532 -40.9383 0 1.93644 53.2471 -4.43813 0 -40.1986 0 4.71507 34.93 4.2119 -8.88179e-016 -4.4182 9.239 9.30315e-008 -6.19108e-009 4.29318e-007 
-7.3995 -0.679886 -59.2862 90.1336 -85.0414 -179.864 0 8.7983 -4.7612 2.0334 -3.06826 -0.260498 0 8.0291 0.4195 4.06167 -6.14382 -0.412502 0 9.9351 -2.2114 4.06165 -6.14384 -0.412519 0 22.3885 -0.4656 8.99835 -1.98036 0.311991 -0.0001 12.643 3.4389 -0.00107387 -10.0018 -14.8439 2.2603 21.606 7.4023 -18.5198 -2.70482 -20.8206 13.5163 -1.1332 -5.0146 49.0164 -55.4752 20.2025 -0.0995 -28.05 -0.2431 -9.0226 1.71347 -4.85194 0.0679 -23.3996 -0.1402 -66.8093 -19.2415 -9.378 0.7932 -9.069 2.5189 3.18055e-015 1.59028e-015 -3.18055e-015 -0.8272 -3.3923 0.5977 -2.87441e-007 7.49338e-007 1.62001e-006 -0.5649 -2.3158 0.4082 -7.95139e-016 -4.77083e-015 3.18055e-015 0.9159 -9.2044 0.2193 3.18055e-015 1.59028e-015 -3.18055e-015 0.0117 -4.1944 -0.0248 -0.0128881 0.0023349 8.51747e-005 0.0071 -2.3249 -0.0142 -3.97569e-016 -1.59028e-015 6.36111e-015 0.6113 -8.7231 -2.0637 3.18055e-015 1.59028e-015 -3.18055e-015 -0.1927 -3.8059 -0.2383 -0.0160796 0.00300104 0.000859864 -0.1091 -2.1688 -0.1362 1.98785e-015 3.18055e-015 -3.18055e-015 -0.6151 -8.0947 -3.5641 3.18055e-015 1.59028e-015 -3.18055e-015 -0.4882 -2.341 -0.6462 -0.012575 0.00312017 0.0028236 -0.3575 -1.7167 -0.4742 -2.38542e-015 2.54444e-014 -0 -1.42 -1.8761 1.4223 3.18055e-015 1.59028e-015 -3.18055e-015 -1.1471 -3.4929 2.6334 -2.87441e-007 7.49338e-007 1.62001e-006 -0.823 -2.3 1.6571 -7.95139e-016 -4.77083e-015 3.18055e-015 -2.2603 21.606 7.4023 6.34222 -19.1149 -37.2911 -13.5187 -1.1334 -5.0155 -57.8868 25.3804 -3.46987 0.0994 -28.0499 -0.2431 67.099 4.65777 -35.65 -0.0679 -23.3996 -0.1402 -29.2875 -17.157 4.64599 -0.7932 -9.0691 2.5189 -1.59028e-015 0 1.19271e-015 0.8272 -3.3923 0.5977 -1.59028e-015 0 3.97569e-016 0.565 -2.3158 0.4082 -4.77083e-015 -1.59028e-015 7.95139e-016 -0.916 -9.2044 0.2193 -1.59028e-015 0 1.19271e-015 -0.0117 -4.1944 -0.0248 0.0129588 0.00234637 -8.91936e-005 -0.0071 -2.3249 -0.0142 -3.18055e-015 -4.77083e-015 1.98785e-015 -0.6113 -8.7231 -2.0637 -1.59028e-015 0 1.19271e-015 0.1927 -3.8059 -0.2383 0.0163462 0.0030499 -0.000875528 0.1091 -2.1688 -0.1362 -3.18055e-015 -1.59028e-015 -0 0.6151 -8.0947 -3.564 -1.59028e-015 0 1.19271e-015 0.4882 -2.341 -0.6462 0.0145333 0.00367011 -0.00325915 0.3574 -1.7166 -0.4742 -0 0 2.78299e-015 1.4199 -1.8761 1.4221 -1.59028e-015 0 1.19271e-015 1.1472 -3.4929 2.6336 -1.59028e-015 0 3.97569e-016 0.8229 -2.3 1.6571 -4.77083e-015 -1.59028e-015 7.95139e-016 -9.412 3.9771 -0.7758 -66.4151 -23.1356 -87.3376 -0.7531 -40.938 0 147.961 45.3441 -143.19 3.55271e-015 -40.1986 1.77636e-015 0.689274 17.7046 11.0001 0 -4.4182 9.239 -6.79095e-007 -3.38163e-006 9.46002e-006 9.4119 3.9773 -0.7758 -1.71183 8.80275 8.23259 0.7532 -40.9383 1.77636e-015 1.80975 52.9082 -4.35077 0 -40.1986 0 4.72926 34.9344 4.20044 8.88179e-016 -4.4182 9.239 2.48481e-016 -1.0597e-007 -0 
-7.30134 -0.67981 -59.3367 90.1308 -84.816 -179.867 0 8.7983 -4.7612 2.03343 -3.06829 -0.260509 4.44089e-016 8.0291 0.4195 4.06166 -6.14383 -0.412508 0 9.9351 -2.2114 4.06169 -6.14385 -0.412503 -1.77636e-015 22.3885 -0.4656 8.99831 -1.98033 0.311967 -0.0001 12.643 3.4389 -0.00108885 -10.0018 -14.9736 2.2603 21.606 7.4023 -18.7687 -2.48518 -21.2279 13.5163 -1.1332 -5.0146 49.4109 -55.0833 20.5185 -0.0995 -28.05 -0.2431 -8.79584 1.67339 -4.8363 0.0679 -23.3996 -0.1402 -66.9368 -19.1621 -9.3335 0.7932 -9.069 2.5189 3.57812e-015 1.59028e-015 -3.18055e-015 -0.8272 -3.3923 0.5977 -2.87561e-007 -8.80383e-007 1.62044e-006 -0.5649 -2.3158 0.4082 7.15625e-015 3.18055e-015 3.18055e-015 0.9159 -9.2044 0.2193 3.57812e-015 1.59028e-015 -3.18055e-015 0.0117 -4.1944 -0.0248 -0.0128021 0.00232484 8.82463e-005 0.0071 -2.3249 -0.0142 -3.57812e-015 1.59028e-015 6.36111e-015 0.6113 -8.7231 -2.0637 3.57812e-015 1.59028e-015 -3.18055e-015 -0.1927 -3.8059 -0.2383 -0.016069 0.00300056 0.000860654 -0.1091 -2.1688 -0.1362 -2.78299e-015 1.59028e-015 -3.18055e-015 -0.6151 -8.0947 -3.5641 3.57812e-015 1.59028e-015 -3.18055e-015 -0.4882 -2.341 -0.6462 -0.0125395 0.00310991 0.00282137 -0.3575 -1.7167 -0.4742 4.89198e-006 2.08554e-006 1.14829e-006 -1.42 -1.8761 1.4223 3.57812e-015 1.59028e-015 -3.18055e-015 -1.1471 -3.4929 2.6334 -2.87561e-007 -8.80383e-007 1.62044e-006 -0.823 -2.3 1.6571 7.15625e-015 3.18055e-015 3.18055e-015 -2.2603 21.606 7.4023 6.34219 -19.1148 -37.2911 -13.5187 -1.1334 -5.0155 -57.8868 25.3804 -3.46987 0.0994 -28.0499 -0.2431 67.099 4.65778 -35.65 -0.0679 -23.3996 -0.1402 -29.2875 -17.157 4.64595 -0.7932 -9.0691 2.5189 -6.57759e-007 -1.26736e-005 -1.02163e-006 0.8272 -3.3923 0.5977 -1.63632e-006 -1.88309e-006 -9.13037e-007 0.565 -2.3158 0.4082 -1.94839e-006 -2.54272e-007 -2.28821e-006 -0.916 -9.2044 0.2193 -6.57759e-007 -1.26736e-005 -1.02163e-006 -0.0117 -4.1944 -0.0248 0.0129358 0.00231698 -8.50489e-005 -0.0071 -2.3249 -0.0142 -1.70644e-006 -4.36932e-007 -3.1002e-006 -0.6113 -8.7231 -2.0637 -6.57759e-007 -1.26736e-005 -1.02163e-006 0.1927 -3.8059 -0.2383 0.016302 0.00303452 -0.000860249 0.1091 -2.1688 -0.1362 -3.3455e-006 -1.40454e-006 -4.01321e-006 0.6151 -8.0947 -3.564 -6.57759e-007 -1.26736e-005 -1.02163e-006 0.4882 -2.341 -0.6462 0.0145898 0.00368902 -0.00327009 0.3574 -1.7166 -0.4742 6.0438e-007 -1.70646e-005 1.97251e-006 1.4199 -1.8761 1.4221 -6.57759e-007 -1.26736e-005 -1.02163e-006 1.1472 -3.4929 2.6336 -1.63632e-006 -1.88309e-006 -9.13037e-007 0.8229 -2.3 1.6571 -1.94839e-006 -2.54272e-007 -2.28821e-006 -9.412 3.9771 -0.7758 -66.2628 -22.9345 -87.0207 -0.7531 -40.938 -7.10543e-015 147.962 45.3435 -143.191 0 -40.1986 0 0.688744 17.6992 11 0 -4.4182 9.239 -3.37988e-006 -1.9448e-007 2.09187e-007 9.4119 3.9773 -0.7758 -1.70106 9.14094 8.21524 0.7532 -40.9383 0 1.70325 52.6944 -4.26737 0 -40.1986 3.55271e-015 4.74356 34.9387 4.18893 -1.77636e-015 -4.4182 9.239 1.98785e-016 1.98785e-016 -0 
-7.20323 -0.679749 -59.3873 90.1285 -84.5906 -179.869 0 8.7983 -4.7612 2.03344 -3.06827 -0.260491 -4.44089e-016 8.0291 0.4195 4.06164 -6.14382 -0.412504 0 9.9351 -2.2114 4.06165 -6.14384 -0.412495 0 22.3885 -0.4656 8.99838 -1.98039 0.311967 -0.0001 12.643 3.4389 -0.00109742 -10.0018 -15.1033 2.2603 21.606 7.4023 -19.0159 -2.26391 -21.6343 13.5163 -1.1332 -5.0146 49.7979 -54.6899 20.8269 -0.0995 -28.05 -0.2431 -8.56921 1.63303 -4.82086 0.0679 -23.3996 -0.1402 -67.0642 -19.0828 -9.28881 0.7932 -9.069 2.5189 -2.8776e-007 -1.26132e-007 1.62086e-006 -0.8272 -3.3923 0.5977 -3.57812e-015 -1.59028e-015 -6.36111e-015 -0.5649 -2.3158 0.4082 -0 -1.59028e-015 -0 0.9159 -9.2044 0.2193 -2.8776e-007 -1.26132e-007 1.62086e-006 0.0117 -4.1944 -0.0248 -0.0127832 0.00231944 8.70474e-005 0.0071 -2.3249 -0.0142 -3.57812e-015 -3.18055e-015 -0 0.6113 -8.7231 -2.0637 -2.8776e-007 -1.26132e-007 1.62086e-006 -0.1927 -3.8059 -0.2383 -0.0160388 0.00299817 0.000860262 -0.1091 -2.1688 -0.1362 7.95139e-016 1.59028e-015 -0 -0.6151 -8.0947 -3.5641 -2.8776e-007 -1.26132e-007 1.62086e-006 -0.4882 -2.341 -0.6462 -0.0126138 0.003129 0.00282956 -0.3575 -1.7167 -0.4742 -7.95139e-016 0 -6.36111e-015 -1.42 -1.8761 1.4223 -2.8776e-007 -1.26132e-007 1.62086e-006 -1.1471 -3.4929 2.6334 -3.57812e-015 -1.59028e-015 -6.36111e-015 -0.823 -2.3 1.6571 -0 -1.59028e-015 -0 -2.2603 21.606 7.4023 6.34226 -19.1149 -37.2911 -13.5187 -1.1334 -5.0155 -57.8868 25.3803 -3.46985 0.0994 -28.0499 -0.2431 67.099 4.65776 -35.65 -0.0679 -23.3996 -0.1402 -29.2874 -17.157 4.64598 -0.7932 -9.06911 2.5189 -4.25574e-006 1.22989e-005 -3.19873e-007 0.8272 -3.3923 0.5977 -7.60646e-007 8.29311e-007 5.49841e-006 0.565 -2.3158 0.4082 -1.59028e-015 -1.59028e-015 -1.59028e-015 -0.916 -9.20441 0.2193 -4.25574e-006 1.22989e-005 -3.19873e-007 -0.0117 -4.1944 -0.0248 0.0129442 0.00229578 -7.74968e-005 -0.0071 -2.3249 -0.0142 1.32941e-006 -6.80864e-007 -4.46555e-006 -0.6113 -8.72311 -2.0637 -4.25574e-006 1.22989e-005 -3.19873e-007 0.1927 -3.8059 -0.2383 0.01636 0.00301232 -0.000869248 0.1091 -2.1688 -0.1362 -1.59028e-015 0 -1.19271e-015 0.6151 -8.09471 -3.564 -4.25574e-006 1.22989e-005 -3.19873e-007 0.4882 -2.341 -0.6462 0.0145351 0.00365146 -0.00324674 0.3574 -1.7166 -0.4742 -4.77083e-015 -4.77083e-015 1.59028e-015 1.4199 -1.8761 1.4221 -4.25574e-006 1.22989e-005 -3.19873e-007 1.1472 -3.4929 2.6336 -7.60646e-007 8.29311e-007 5.49841e-006 0.8229 -2.3 1.6571 -1.59028e-015 -1.59028e-015 -1.59028e-015 -9.412 3.9771 -0.7758 -66.1122 -22.7322 -86.7049 -0.7531 -40.938 7.10543e-015 147.963 45.3427 -143.192 -3.55272e-015 -40.1986 -3.55271e-015 0.688323 17.6938 10.9998 0 -4.4182 9.239 -2.75804e-006 -1.2105e-006 2.36397e-007 9.4119 3.9773 -0.7758 -1.69119 9.60663 8.20025 0.7532 -40.9383 1.77636e-015 1.57886 52.3542 -4.18289 1.77636e-015 -40.1986 -3.55271e-015 4.75805 34.943 4.17737 -8.88179e-016 -4.4182 9.239 -1.01423e-005 5.57516e-007 1.3827e-007 
